<svg xmlns="http://www.w3.org/2000/svg" viewBox="0 0 120 124" width="120" height="124" role="img" aria-label="EB"><title>EB</title><g transform="translate(0 1)"><defs><linearGradient id="drop-f" x1="0" y1="0" x2="0.3" y2="1"><stop offset="0" stop-color="#bfe6fa"/><stop offset=".45" stop-color="#89cff0"/><stop offset="1" stop-color="#1f7bbf"/></linearGradient></defs>
    <path d="M60 2C60 2 13 52 13 78a47 47 0 0 0 94 0C107 52 60 2 60 2z" fill="url(#drop-f)"/><path d="M37 97Q34.9 97 33.8 95.9Q32.7 94.7 32.7 92.6V68.9Q32.7 66.8 33.8 65.7Q34.9 64.6 37 64.6H52.7Q54.3 64.6 55.2 65.4Q56 66.2 56 67.8Q56 69.4 55.2 70.3Q54.3 71.1 52.7 71.1H40.7V77.3H51.7Q53.3 77.3 54.1 78.1Q54.9 78.9 54.9 80.5Q54.9 82.1 54.1 83Q53.3 83.8 51.7 83.8H40.7V90.5H52.7Q54.3 90.5 55.2 91.3Q56 92.2 56 93.7Q56 95.3 55.2 96.2Q54.3 97 52.7 97ZM65.3 97Q63.2 97 62 95.9Q60.9 94.7 60.9 92.6V68.9Q60.9 66.8 62 65.7Q63.2 64.6 65.3 64.6H76.6Q80.1 64.6 82.5 65.6Q84.9 66.6 86.2 68.5Q87.6 70.4 87.6 72.9Q87.6 75.8 85.9 77.9Q84.3 79.9 81.5 80.6V79.9Q84.8 80.5 86.6 82.5Q88.4 84.5 88.4 87.8Q88.4 92.1 85.4 94.5Q82.3 97 77 97ZM69 90.8H75.9Q78.2 90.8 79.3 89.9Q80.4 89 80.4 87.2Q80.4 85.4 79.3 84.5Q78.2 83.6 75.9 83.6H69ZM69 77.5H75Q77.3 77.5 78.4 76.6Q79.5 75.8 79.5 74.1Q79.5 72.3 78.4 71.6Q77.3 70.8 75 70.8H69Z" fill="#fff"/></g></svg>
